{"title":"Shame 2011 720p CAM XViD DTRG.","uid":6992239,"size":2612056946,"categoryP":"video","categoryS":"hd___movies","magnet":"?xt=urn:btih:99418f8690cb8159c9eb4ad91f55e270417fb8b3&amp;dn=Shame+2011+720p+CAM+XViD+DTRG.&amp;tr=udp%3A%2F%2Ftracker.openbittorrent.com%3A80&amp;tr=udp%3A%2F%2Fopen.demonii.com%3A1337&amp;tr=udp%3A%2F%2Ftracker.coppersurfer.tk%3A6969&amp;tr=udp%3A%2F%2Fexodus.desync.com%3A6969","seeders":1,"leechers":0,"uploader":"moviesp2p","files":3,"time":1327750374,"description":"[imgw=http://www.covershut.com/covers/Shame-2011-Front-Cover-61205.jpg]\n\nFormat                           : AVI\nFormat/Info                      : Audio Video Interleave\nFormat profile                   : OpenDML\nFile size                        : 2.42 GiB\nDuration                         : 1h 35mn\nOverall bit rate                 : 3 638 Kbps\nWriting application              : VirtualDubMod 1.5.10.2 (build 2540/release)\nWriting library                  : VirtualDubMod build 2540/release\n\nVideo\nID                               : 0\nFormat                           : MPEG-4 Visual\nFormat profile                   : Advanced Simple@L5\nFormat settings, BVOP            : 1\nFormat settings, QPel            : No\nFormat settings, GMC             : No warppoints\nFormat settings, Matrix          : Default (H.263)\nMuxing mode                      : Packed bitstream\nCodec ID                         : XVID\nCodec ID/Hint                    : XviD\nDuration                         : 1h 35mn\nBit rate                         : 3 498 Kbps\nWidth                            : 1 280 pixels\nHeight                           : 512 pixels\nDisplay aspect ratio             : 2.500\nFrame rate                       : 25.000 fps\nColor space                      : YUV\nChroma subsampling               : 4:2:0\nBit depth                        : 8 bits\nScan type                        : Progressive\nCompression mode                 : Lossy\nBits/(Pixel*Frame)               : 0.214\nStream size                      : 2.33 GiB (96%)\nWriting library                  : XviD 64\n\nAudio\nID                               : 1\nFormat                           : MPEG Audio\nFormat version                   : Version 1\nFormat profile                   : Layer 3\nMode                             : Joint stereo\nMode extension                   : MS Stereo\nCodec ID                         : 55\nCodec ID/Hint                    : MP3\nDuration                         : 1h 35mn\nBit rate mode                    : Constant\nBit rate                         : 128 Kbps\nChannel(s)                       : 2 channels\nSampling rate                    : 44.1 KHz\nCompression mode                 : Lossy\nStream size                      : 87.1 MiB (4%)\nAlignment                        : Split accross interleaves\nInterleave, duration             : 40 ms (1.00 video frame)\nInterleave, preload duration     : 500 ms\n\n\n\n\n\n\n\n\n\n\n &lt;a href=&quot;\nhttp://www.imdb.com/title/tt1723811/&quot; rel=&quot;nofollow&quot; target=&quot;_NEW&quot;&gt;\nhttp://www.imdb.com/title/tt1723811/&lt;/a&gt;\n\n\n\n\n\n\n\n\n\n\n\n\nRatings: 8.0/10 from 6,237 users   Metascore: 72/100 \nReviews: 86 user | 198 critic | 39 from Metacritic.com\n\nIn New York City, Brandon's carefully cultivated private life -- which allows him to indulge his sexual addiction -- is disrupted when his sister Sissy arrives unannounced for an indefinite stay.\nDirector:\nSteve McQueen\nWriters:\nAbi Morgan (screenplay), Steve McQueen (screenplay)\nStars:\nMichael Fassbender, Carey Mulligan and James \n\n\n\n\n\n\n\n\n\nSource Used\n\n\n\n\n\nShame 2011 HDTS MD x264 720p P76.......... Thanks\n\nINSPiRAL........................................Thanks \n\n\nBasically not far off the same as my regular cam copy of this ....Vid movement at start had to crop away black borders but due to movement time to time the border will reappear but not too often so never went for a bigger crop as didnt want to lose too much vid\n\n\nCheck out the sample provided !\n\n\nEnjoy\n\n[imgw=http://i.imgur.com/lpEiO.jpg]\n[imgw=http://i.imgur.com/9RVsd.jpg]\n[imgw=http://i.imgur.com/7MiCr.jpg]\n[imgw=http://i.imgur.com/xYd2w.png]\n\nGreetz to EMBER,ETRG,BHRG,CreWSaDe,RemixHD,LEGiTiMATE,iNSPiRAL,EXQUiSiTE.......and maybe many more ","torrent":{"xt":"urn:btih:99418f8690cb8159c9eb4ad91f55e270417fb8b3","amp;dn":"Shame+2011+720p+CAM+XViD+DTRG.","amp;tr":["udp%3A%2F%2Ftracker.openbittorrent.com%3A80","udp%3A%2F%2Fopen.demonii.com%3A1337","udp%3A%2F%2Ftracker.coppersurfer.tk%3A6969","udp%3A%2F%2Fexodus.desync.com%3A6969"],"infoHash":"99418f8690cb8159c9eb4ad91f55e270417fb8b3","infoHashBuffer":{"type":"Buffer","data":[153,65,143,134,144,203,129,89,201,235,74,217,31,85,226,112,65,127,184,179]},"announce":[],"urlList":[]}}